<svg xmlns="http://www.w3.org/2000/svg" width="35" height="35" version="1.1" viewBox="0 0 35 35"><defs><radialGradient id="radialGradient-1" cx="58.867%" cy="45.216%" r="44.846%" fx="58.867%" fy="45.216%"><stop offset=".082%" stop-color="#FFD763"/><stop offset="49.456%" stop-color="#FFD35F"/><stop offset="77.634%" stop-color="#FFCD5A"/><stop offset="100%" stop-color="#FFB746"/></radialGradient></defs><g id="Scrap" fill="none" fill-rule="evenodd" stroke="none" stroke-width="1"><g id="Desktop-write-review-Copy" transform="translate(-554 -542)"><g id="Group-14-Copy-3" transform="translate(407 541)"><g id="4" transform="translate(146)"><circle id="Oval" cx="18.56" cy="18.56" r="16.56" fill="url(#radialGradient-1)" fill-rule="nonzero"/><path id="Path" fill="#24272C" fill-rule="nonzero" d="M15.127 15.71c0 .339-.259.612-.583.612a.572.572 0 0 1-.475-.266c-.007 0-.007 0-.007-.007-.562-.67-1.145-1.015-1.757-1.015-1.073 0-1.951 1.036-1.959 1.05l-.007-.006a.572.572 0 0 1-.381.158.597.597 0 0 1-.584-.612c0-.122.036-.238.094-.338 0-.008 0-.008.007-.008.015-.021.065-.072.137-.144.007-.014.014-.014.022-.021.374-.396 1.382-1.296 2.678-1.296.965 0 1.858.49 2.65 1.454l.014.015a.743.743 0 0 1 .151.424ZM28.382 15.71c0 .339-.259.612-.583.612a.572.572 0 0 1-.475-.266c-.007 0-.007 0-.007-.007-.562-.67-1.145-1.015-1.757-1.015-1.073 0-1.951 1.036-1.958 1.05l-.008-.006a.572.572 0 0 1-.381.158.597.597 0 0 1-.583-.612c0-.122.036-.238.093-.338 0-.008 0-.008.007-.008.015-.021.065-.072.137-.144.007-.014.015-.014.022-.021.374-.396 1.382-1.296 2.678-1.296.965 0 1.858.49 2.65 1.454l.014.015a.695.695 0 0 1 .151.424Z"/><path id="Path" fill="#F75D34" fill-rule="nonzero" d="M18.64 24.134c-3.189 0-4.715-2.455-5.068-3.75a.64.64 0 0 1 .446-.786.64.64 0 0 1 .785.447c.029.115.835 2.822 3.845 2.822 3.017 0 3.852-2.736 3.888-2.858a.632.632 0 0 1 .785-.432.63.63 0 0 1 .432.785c-.375 1.31-1.923 3.772-5.112 3.772Z"/></g></g></g></g></svg>