<svg xmlns="http://www.w3.org/2000/svg" width="35" height="35" version="1.1" viewBox="0 0 35 35"><defs><radialGradient id="radialGradient-1" cx="58.867%" cy="45.216%" r="44.846%" fx="58.867%" fy="45.216%"><stop offset=".082%" stop-color="#FFD763"/><stop offset="49.456%" stop-color="#FFD35F"/><stop offset="77.634%" stop-color="#FFCD5A"/><stop offset="100%" stop-color="#FFB746"/></radialGradient></defs><g id="Scrap" fill="none" fill-rule="evenodd" stroke="none" stroke-width="1"><g id="Desktop-write-review-Copy" fill-rule="nonzero" transform="translate(-455 -542)"><g id="Group-14-Copy-3" transform="translate(407 541)"><g id="2" transform="translate(48 1)"><circle id="Oval" cx="17.56" cy="17.56" r="16.56" fill="url(#radialGradient-1)"/><path id="Path" fill="#24272C" d="M10.1 14.694a.678.678 0 0 0-.676.662c0 .13.007 1.289.785 2.074.432.432 1.015.662 1.699.662.684 0 1.274-.23 1.7-.67.762-.777.762-1.93.762-2.059a.674.674 0 0 0-1.346.022c0 .194-.065.77-.382 1.087-.172.173-.41.26-.734.26s-.562-.087-.742-.267c-.381-.389-.396-1.102-.396-1.109a.675.675 0 0 0-.662-.684c0 .022-.007.022-.007.022ZM21.268 14.694a.678.678 0 0 0-.677.662c0 .13.007 1.289.785 2.074.432.432 1.015.662 1.7.662.683 0 1.274-.23 1.698-.67.764-.777.764-1.93.764-2.059a.674.674 0 0 0-1.347.022c0 .194-.065.77-.381 1.087-.173.173-.41.26-.735.26-.324 0-.561-.087-.741-.267-.382-.389-.396-1.102-.396-1.109a.675.675 0 0 0-.663-.684c0 .022-.007.022-.007.022Z"/><path id="Path" fill="#F75D34" d="M15.407 24.586c1.476-1.396 3.463-1.404 4.932 0 .72.692 1.822-.41 1.095-1.094-2.088-1.987-5.019-1.994-7.128 0-.72.684.374 1.786 1.101 1.094Z"/></g></g></g></g></svg>