<svg xmlns="http://www.w3.org/2000/svg" width="35" height="35" version="1.1" viewBox="0 0 35 35"><defs><radialGradient id="radialGradient-1" cx="58.867%" cy="45.216%" r="44.846%" fx="58.867%" fy="45.216%"><stop offset=".082%" stop-color="#FFD763"/><stop offset="49.456%" stop-color="#FFD35F"/><stop offset="77.634%" stop-color="#FFCD5A"/><stop offset="100%" stop-color="#FFB746"/></radialGradient></defs><g id="Scrap" fill="none" fill-rule="evenodd" stroke="none" stroke-width="1"><g id="Desktop-write-review-Copy" fill-rule="nonzero" transform="translate(-407 -542)"><g id="Group-14-Copy-3" transform="translate(407 541)"><g id="1" transform="translate(0 1)"><circle id="Oval" cx="17.56" cy="17.56" r="16.56" fill="url(#radialGradient-1)"/><path id="Path" fill="#24272C" d="M15.026 15.81c0 .41-.332.741-.735.741a.584.584 0 0 1-.252-.05c-.014-.007-.021-.007-.029-.015l-4.377-1.382c-.007 0-.007-.007-.015-.007l-.093-.029c-.007-.007-.015-.007-.029-.014a.46.46 0 0 1-.1-.058.738.738 0 0 1 .382-1.36c.013 0 .028 0 .042.006a.47.47 0 0 1 .151.03c.015.006.029.006.036.014l4.428 1.404c.015.007.029.007.043.014.317.08.548.367.548.706ZM26.07 14.384a.739.739 0 0 0-.734-.742.584.584 0 0 0-.252.05c-.014.008-.022.008-.029.015l-4.377 1.383c-.008 0-.008.007-.015.007l-.093.029c-.008.007-.015.007-.03.014a.46.46 0 0 0-.1.058.738.738 0 0 0 .382 1.36c.014 0 .028 0 .043-.007a.47.47 0 0 0 .151-.029c.014-.007.029-.007.036-.014l4.428-1.404c.014-.007.029-.007.043-.014a.714.714 0 0 0 .547-.706Z"/><path id="Path" fill="#F75D34" d="M11.332 26.79a.948.948 0 0 1-.245-.03c-.468-.1-.734-.467-.605-.82.519-1.36 2.672-3.938 7.107-3.938 4.442 0 6.552 2.563 7.049 3.916.13.353-.144.72-.62.814-.468.1-.957-.108-1.087-.46-.043-.116-1.166-2.946-5.35-2.946-4.19 0-5.356 2.859-5.407 2.981-.108.295-.46.483-.842.483Z"/><path id="Path" fill="#24272C" d="M20.714 18.934c.388.483.972.864 1.562 1.052 1.21.381 2.326-.202 3.14-1.08.69-.75-.433-1.88-1.124-1.124-.785.857-1.706.958-2.455.03-.641-.8-1.757.33-1.123 1.122ZM9.676 18.934c.389.483.972.864 1.562 1.052 1.21.381 2.326-.202 3.14-1.08.69-.75-.432-1.88-1.124-1.124-.784.857-1.706.958-2.455.03-.64-.8-1.757.33-1.123 1.122Z"/></g></g></g></g></svg>